<?xml version="1.0" standalone="no"?>
<svg xmlns:xlink="http://www.w3.org/1999/xlink" id="wave" style="transform:rotate(180deg); transition: 0.3s" viewBox="0 0 1440 270" version="1.1" xmlns="http://www.w3.org/2000/svg"><defs><linearGradient id="sw-gradient-0" x1="0" x2="0" y1="1" y2="0"><stop stop-color="rgba(255, 255, 255, 1)" offset="0%"/><stop stop-color="rgba(255, 255, 255, 1)" offset="100%"/></linearGradient></defs><path style="transform:translate(0, 0px); opacity:1" fill="url(#sw-gradient-0)" d="M0,108L30,126C60,144,120,180,180,175.5C240,171,300,126,360,112.5C420,99,480,117,540,139.5C600,162,660,189,720,184.5C780,180,840,144,900,108C960,72,1020,36,1080,22.5C1140,9,1200,18,1260,54C1320,90,1380,153,1440,180C1500,207,1560,198,1620,184.5C1680,171,1740,153,1800,135C1860,117,1920,99,1980,112.5C2040,126,2100,171,2160,180C2220,189,2280,162,2340,157.5C2400,153,2460,171,2520,189C2580,207,2640,225,2700,198C2760,171,2820,99,2880,81C2940,63,3000,99,3060,99C3120,99,3180,63,3240,81C3300,99,3360,171,3420,184.5C3480,198,3540,153,3600,144C3660,135,3720,162,3780,157.5C3840,153,3900,117,3960,112.5C4020,108,4080,135,4140,157.5C4200,180,4260,198,4290,207L4320,216L4320,270L4290,270C4260,270,4200,270,4140,270C4080,270,4020,270,3960,270C3900,270,3840,270,3780,270C3720,270,3660,270,3600,270C3540,270,3480,270,3420,270C3360,270,3300,270,3240,270C3180,270,3120,270,3060,270C3000,270,2940,270,2880,270C2820,270,2760,270,2700,270C2640,270,2580,270,2520,270C2460,270,2400,270,2340,270C2280,270,2220,270,2160,270C2100,270,2040,270,1980,270C1920,270,1860,270,1800,270C1740,270,1680,270,1620,270C1560,270,1500,270,1440,270C1380,270,1320,270,1260,270C1200,270,1140,270,1080,270C1020,270,960,270,900,270C840,270,780,270,720,270C660,270,600,270,540,270C480,270,420,270,360,270C300,270,240,270,180,270C120,270,60,270,30,270L0,270Z"/></svg>